<mxfile host="app.diagrams.net" agent="Mozilla/5.0 (X11; Ubuntu; Linux x86_64; rv:137.0) Gecko/20100101 Firefox/137.0" version="26.2.14">
  <diagram name="Page-1" id="RYwiJerEr7neYNAR1BZN">
    <mxGraphModel dx="1106" dy="1656" grid="1" gridSize="10" guides="1" tooltips="1" connect="1" arrows="1" fold="1" page="1" pageScale="1" pageWidth="850" pageHeight="1100" math="0" shadow="0">
      <root>
        <mxCell id="0" />
        <mxCell id="1" parent="0" />
        <mxCell id="fW85EFeijCsHItw4bJKT-2" style="edgeStyle=orthogonalEdgeStyle;rounded=0;orthogonalLoop=1;jettySize=auto;html=1;entryX=0.5;entryY=0;entryDx=0;entryDy=0;" parent="1" source="fW85EFeijCsHItw4bJKT-1" edge="1">
          <mxGeometry relative="1" as="geometry">
            <mxPoint x="490" y="350" as="targetPoint" />
            <Array as="points">
              <mxPoint x="490" y="340" />
              <mxPoint x="490" y="340" />
            </Array>
          </mxGeometry>
        </mxCell>
        <mxCell id="fW85EFeijCsHItw4bJKT-26" value="" style="edgeStyle=orthogonalEdgeStyle;rounded=0;orthogonalLoop=1;jettySize=auto;html=1;" parent="1" source="fW85EFeijCsHItw4bJKT-1" target="fW85EFeijCsHItw4bJKT-25" edge="1">
          <mxGeometry relative="1" as="geometry" />
        </mxCell>
        <mxCell id="fW85EFeijCsHItw4bJKT-1" value="&lt;div&gt;User Presses Up or Down button. LED bar turn on to show what floor the user is currently at. LCD Prompt: &quot;up or down?&quot;&lt;/div&gt;" style="rounded=0;whiteSpace=wrap;html=1;" parent="1" vertex="1">
          <mxGeometry x="430" y="270" width="120" height="120" as="geometry" />
        </mxCell>
        <mxCell id="fW85EFeijCsHItw4bJKT-10" style="edgeStyle=orthogonalEdgeStyle;rounded=0;orthogonalLoop=1;jettySize=auto;html=1;entryX=0.5;entryY=0;entryDx=0;entryDy=0;" parent="1" target="fW85EFeijCsHItw4bJKT-7" edge="1">
          <mxGeometry relative="1" as="geometry">
            <mxPoint x="485" y="50.00000000000006" as="sourcePoint" />
          </mxGeometry>
        </mxCell>
        <mxCell id="fW85EFeijCsHItw4bJKT-12" style="edgeStyle=orthogonalEdgeStyle;rounded=0;orthogonalLoop=1;jettySize=auto;html=1;" parent="1" source="fW85EFeijCsHItw4bJKT-7" edge="1">
          <mxGeometry relative="1" as="geometry">
            <mxPoint x="640" y="165" as="targetPoint" />
          </mxGeometry>
        </mxCell>
        <mxCell id="fW85EFeijCsHItw4bJKT-14" value="yes" style="edgeLabel;html=1;align=center;verticalAlign=middle;resizable=0;points=[];" parent="fW85EFeijCsHItw4bJKT-12" vertex="1" connectable="0">
          <mxGeometry x="-0.351" relative="1" as="geometry">
            <mxPoint as="offset" />
          </mxGeometry>
        </mxCell>
        <mxCell id="fW85EFeijCsHItw4bJKT-7" value="Did the User input it wrong 3 times?" style="rhombus;whiteSpace=wrap;html=1;" parent="1" vertex="1">
          <mxGeometry x="413.75" y="100" width="142.5" height="130" as="geometry" />
        </mxCell>
        <mxCell id="fW85EFeijCsHItw4bJKT-20" style="edgeStyle=orthogonalEdgeStyle;rounded=0;orthogonalLoop=1;jettySize=auto;html=1;entryX=1;entryY=0.5;entryDx=0;entryDy=0;" parent="1" source="fW85EFeijCsHItw4bJKT-13" edge="1">
          <mxGeometry relative="1" as="geometry">
            <mxPoint x="545" y="35.00000000000006" as="targetPoint" />
            <Array as="points">
              <mxPoint x="690" y="35" />
            </Array>
          </mxGeometry>
        </mxCell>
        <mxCell id="fW85EFeijCsHItw4bJKT-13" value="Alarm turns on and user is locked in until admin access code is given. LCD prompts &quot;PLEASE WAIT FOR ADMIN&quot;" style="rounded=0;whiteSpace=wrap;html=1;" parent="1" vertex="1">
          <mxGeometry x="640" y="135" width="120" height="105" as="geometry" />
        </mxCell>
        <mxCell id="fW85EFeijCsHItw4bJKT-16" style="edgeStyle=orthogonalEdgeStyle;rounded=0;orthogonalLoop=1;jettySize=auto;html=1;exitX=0.5;exitY=1;exitDx=0;exitDy=0;entryX=0.447;entryY=-0.021;entryDx=0;entryDy=0;entryPerimeter=0;" parent="1" source="fW85EFeijCsHItw4bJKT-7" target="fW85EFeijCsHItw4bJKT-1" edge="1">
          <mxGeometry relative="1" as="geometry" />
        </mxCell>
        <mxCell id="fW85EFeijCsHItw4bJKT-17" value="no" style="edgeLabel;html=1;align=center;verticalAlign=middle;resizable=0;points=[];" parent="fW85EFeijCsHItw4bJKT-16" vertex="1" connectable="0">
          <mxGeometry x="-0.0321" y="1" relative="1" as="geometry">
            <mxPoint as="offset" />
          </mxGeometry>
        </mxCell>
        <mxCell id="fW85EFeijCsHItw4bJKT-22" value="User Inputs employee code onto keypad LCD prompt&#39;s &quot;please input your employee number Door starts closed." style="rounded=0;whiteSpace=wrap;html=1;" parent="1" vertex="1">
          <mxGeometry x="425" y="-30" width="120" height="115" as="geometry" />
        </mxCell>
        <mxCell id="fW85EFeijCsHItw4bJKT-31" style="edgeStyle=orthogonalEdgeStyle;rounded=0;orthogonalLoop=1;jettySize=auto;html=1;entryX=0.5;entryY=0;entryDx=0;entryDy=0;" parent="1" source="fW85EFeijCsHItw4bJKT-25" target="fW85EFeijCsHItw4bJKT-27" edge="1">
          <mxGeometry relative="1" as="geometry" />
        </mxCell>
        <mxCell id="fW85EFeijCsHItw4bJKT-25" value="LCD PROMPT: please choose what floor using the turnkey" style="rounded=0;whiteSpace=wrap;html=1;" parent="1" vertex="1">
          <mxGeometry x="430" y="430" width="120" height="120" as="geometry" />
        </mxCell>
        <mxCell id="fW85EFeijCsHItw4bJKT-34" style="edgeStyle=orthogonalEdgeStyle;rounded=0;orthogonalLoop=1;jettySize=auto;html=1;entryX=0;entryY=0.5;entryDx=0;entryDy=0;" parent="1" source="fW85EFeijCsHItw4bJKT-27" target="fW85EFeijCsHItw4bJKT-33" edge="1">
          <mxGeometry relative="1" as="geometry" />
        </mxCell>
        <mxCell id="fW85EFeijCsHItw4bJKT-27" value="User selects floor using turnkey" style="rhombus;whiteSpace=wrap;html=1;" parent="1" vertex="1">
          <mxGeometry x="417.5" y="600" width="145" height="130" as="geometry" />
        </mxCell>
        <mxCell id="fW85EFeijCsHItw4bJKT-35" style="edgeStyle=orthogonalEdgeStyle;rounded=0;orthogonalLoop=1;jettySize=auto;html=1;entryX=0.5;entryY=1;entryDx=0;entryDy=0;" parent="1" source="fW85EFeijCsHItw4bJKT-33" target="fW85EFeijCsHItw4bJKT-13" edge="1">
          <mxGeometry relative="1" as="geometry" />
        </mxCell>
        <mxCell id="fW85EFeijCsHItw4bJKT-36" value="yes" style="edgeLabel;html=1;align=center;verticalAlign=middle;resizable=0;points=[];" parent="fW85EFeijCsHItw4bJKT-35" vertex="1" connectable="0">
          <mxGeometry x="0.1602" relative="1" as="geometry">
            <mxPoint as="offset" />
          </mxGeometry>
        </mxCell>
        <mxCell id="fW85EFeijCsHItw4bJKT-38" style="edgeStyle=orthogonalEdgeStyle;rounded=0;orthogonalLoop=1;jettySize=auto;html=1;entryX=0.5;entryY=0;entryDx=0;entryDy=0;" parent="1" source="fW85EFeijCsHItw4bJKT-33" target="fW85EFeijCsHItw4bJKT-37" edge="1">
          <mxGeometry relative="1" as="geometry" />
        </mxCell>
        <mxCell id="fW85EFeijCsHItw4bJKT-33" value="Does the user select a floor above them when they pressed down or vice versa?" style="rhombus;whiteSpace=wrap;html=1;direction=south;" parent="1" vertex="1">
          <mxGeometry x="399.37" y="770" width="181.25" height="177.5" as="geometry" />
        </mxCell>
        <mxCell id="fW85EFeijCsHItw4bJKT-40" style="edgeStyle=orthogonalEdgeStyle;rounded=0;orthogonalLoop=1;jettySize=auto;html=1;entryX=0.5;entryY=0;entryDx=0;entryDy=0;" parent="1" source="fW85EFeijCsHItw4bJKT-37" target="fW85EFeijCsHItw4bJKT-39" edge="1">
          <mxGeometry relative="1" as="geometry" />
        </mxCell>
        <mxCell id="fW85EFeijCsHItw4bJKT-37" value="LCD screen Says &quot;now going&quot; + direction!" style="rounded=0;whiteSpace=wrap;html=1;" parent="1" vertex="1">
          <mxGeometry x="430" y="990" width="120" height="60" as="geometry" />
        </mxCell>
        <mxCell id="fW85EFeijCsHItw4bJKT-42" style="edgeStyle=orthogonalEdgeStyle;rounded=0;orthogonalLoop=1;jettySize=auto;html=1;entryX=0.5;entryY=0;entryDx=0;entryDy=0;" parent="1" source="fW85EFeijCsHItw4bJKT-39" target="fW85EFeijCsHItw4bJKT-41" edge="1">
          <mxGeometry relative="1" as="geometry" />
        </mxCell>
        <mxCell id="fW85EFeijCsHItw4bJKT-39" value="Motor simulates going up or down floors." style="rounded=0;whiteSpace=wrap;html=1;" parent="1" vertex="1">
          <mxGeometry x="430" y="1120" width="120" height="60" as="geometry" />
        </mxCell>
        <mxCell id="fW85EFeijCsHItw4bJKT-45" style="edgeStyle=orthogonalEdgeStyle;rounded=0;orthogonalLoop=1;jettySize=auto;html=1;" parent="1" source="fW85EFeijCsHItw4bJKT-41" target="fW85EFeijCsHItw4bJKT-44" edge="1">
          <mxGeometry relative="1" as="geometry" />
        </mxCell>
        <mxCell id="fW85EFeijCsHItw4bJKT-41" value="When user gets to their destination, servo motor turns up and light turns green for 10 seconds" style="rounded=0;whiteSpace=wrap;html=1;" parent="1" vertex="1">
          <mxGeometry x="429.99" y="1250" width="120" height="100" as="geometry" />
        </mxCell>
        <mxCell id="fW85EFeijCsHItw4bJKT-44" value="After 10 seconds, light turns red and servo goes back to closed position. " style="rounded=0;whiteSpace=wrap;html=1;" parent="1" vertex="1">
          <mxGeometry x="429.99" y="1380" width="120" height="100" as="geometry" />
        </mxCell>
        <mxCell id="fW85EFeijCsHItw4bJKT-50" style="edgeStyle=orthogonalEdgeStyle;rounded=0;orthogonalLoop=1;jettySize=auto;html=1;entryX=0;entryY=0.435;entryDx=0;entryDy=0;entryPerimeter=0;exitX=0;exitY=0.5;exitDx=0;exitDy=0;" parent="1" source="fW85EFeijCsHItw4bJKT-44" edge="1">
          <mxGeometry relative="1" as="geometry">
            <mxPoint x="425" y="1430" as="sourcePoint" />
            <mxPoint x="424.99" y="30.02500000000009" as="targetPoint" />
            <Array as="points">
              <mxPoint x="190" y="1430" />
              <mxPoint x="190" y="30" />
            </Array>
          </mxGeometry>
        </mxCell>
      </root>
    </mxGraphModel>
  </diagram>
</mxfile>
